<?xml version="1.0" encoding="utf-8"?>
<!-- Generator: Adobe Illustrator 16.0.0, SVG Export Plug-In . SVG Version: 6.00 Build 0)  -->
<!DOCTYPE svg PUBLIC "-//W3C//DTD SVG 1.1//EN" "http://www.w3.org/Graphics/SVG/1.1/DTD/svg11.dtd">
<svg version="1.1" id="Layer_1" xmlns="http://www.w3.org/2000/svg" xmlns:xlink="http://www.w3.org/1999/xlink" x="0px" y="0px"
	 width="200px" height="200px" viewBox="0 0 200 200" enable-background="new 0 0 200 200" xml:space="preserve">
<rect x="0" fill="#2F4858" width="200" height="200"/>
<g>
	<g>
		<path fill="#FFFFFF" d="M27.835,120.308c0.052,0.76,0.517,7.103-2.938,11.518c-0.465,0.609-0.568,0.762-1.548,1.626l-6.085-3.504
			c0.464-0.659,0.979-1.268,1.341-1.878c1.444-2.284,1.599-4.21,1.753-6.444v-11.519c-0.052-2.281-0.154-4.616-0.309-6.898
			l7.941-1.119c-0.103,1.423-0.155,2.895-0.155,4.314V120.308L27.835,120.308z"/>
		<path fill="#FFFFFF" d="M47.176,125.506l-0.671-1.774c-0.929,0.607-3.043,2.18-6.188,2.18c-1.342,0-3.971-0.254-6.292-2.741
			c-1.084-1.114-1.496-2.129-1.703-2.688c-0.361-0.962-0.463-1.472-0.515-3.297v-12.89l7.633-0.102
			c-0.103,2.534-0.154,5.124-0.206,7.662v3.704c0,1.066,0,1.521,0.154,1.979c0.257,0.813,0.928,1.776,2.887,1.776
			c1.032,0,1.806-0.151,3.457-1.169v-13.851l7.736-0.102c-0.155,4.111-0.362,8.221-0.362,12.38c0,2.994,0.155,4.618,0.619,7.562
			L47.176,125.506z"/>
		<path fill="#FFFFFF" d="M71.209,128.366c0.104-2.843,0.207-5.635,0.207-8.475c0-2.588,0.052-4.518-0.464-5.48
			c-0.566-1.016-1.96-1.369-3.093-1.369c-1.651,0-2.683,0.71-3.199,1.014c0,2.438-0.052,4.87,0,7.309l0.155,7.002h-7.736
			c0.154-3.553,0.26-7.055,0.26-10.555c-0.054-3.097-0.155-4.72-0.931-7.612c0.671-0.405,1.341-0.863,2.063-1.168
			c1.496-0.71,5.054-2.081,9.593-2.081c0.464,0,2.166,0,3.661,0.356c3.868,0.813,5.622,2.793,6.343,4.264
			c0.877,1.673,0.825,3.551,0.825,4.108c0,0.916-0.051,1.827-0.051,2.74c-0.052,1.522-0.103,2.994-0.103,4.463
			c0,1.828,0.103,3.657,0.154,5.484H71.209L71.209,128.366z"/>
		<path fill="#FFFFFF" d="M86.175,115.912c0.955,0.159,2.779,0.68,5.074-0.252c2.294-0.932,3.538-3.353,2.583-5.704
			c-1.049-2.585-3.905-3.453-6.391-2.444c-1.528,0.62-2.59,1.708-2.924,2.118c-0.182,0.237-0.421,0.609-0.813,1.15l-5.101-3.514
			c0.295-0.506,0.66-0.982,1.023-1.458c0.669-0.82,2.907-3.261,6.062-4.541c0.812-0.329,2.6-1,4.919-0.901
			c1.979,0.072,7.53,0.995,9.876,6.78c0.478,1.175,1.412,4.027,0.243,7.457c-0.527,1.582-2.219,5.504-6.807,7.363
			c-4.224,1.661-7.865,0.51-9.373,0.08L86.175,115.912z"/>
		<path fill="#FFFFFF" d="M119.245,110.73v5.987h-4.796v2.894c0,1.775,0.051,2.942,0.412,3.651c0.567,1.066,1.806,1.17,2.115,1.17
			c0.979,0,1.701-0.458,2.526-0.863l2.478,5.021c-0.931,0.458-3.663,2.031-6.962,2.031c-1.084,0-3.921-0.152-5.983-2.589
			c-0.312-0.354-0.979-1.218-1.395-2.487c-0.411-1.32-0.465-2.841-0.514-4.211v-4.718h-2.788v-5.887h2.788v-7.004
			c-0.052-1.318-0.052-2.589-0.103-3.908l8.044-1.318c-0.259,2.894-0.464,5.835-0.568,8.779c-0.051,1.116-0.051,2.281-0.051,3.451
			H119.245L119.245,110.73z"/>
		<path fill="#FFFFFF" d="M154.253,105.054c1.188,0.964,4.333,3.856,4.333,8.524c0,0.711-0.052,2.283-0.826,4.111
			c-1.857,4.364-6.24,7.155-11.037,7.155c-0.826,0-2.372-0.052-4.28-0.812c-4.383-1.728-7.426-5.582-7.426-10.352
			c0-1.269,0.206-2.184,0.359-2.691c0.672-2.435,2.477-4.923,4.592-6.395c0.979-0.659,3.403-2.028,6.705-2.079
			C147.856,102.517,151.365,102.77,154.253,105.054z M146.673,118.4c2.631,0,4.744-2.131,4.744-4.669
			c0-2.589-2.167-4.619-4.744-4.619c-2.632,0-4.693,2.081-4.693,4.619c0,0.658,0.151,2.079,1.392,3.299
			C143.783,117.438,144.969,118.4,146.673,118.4z"/>
		<path fill="#FFFFFF" d="M174.292,122.853c0.104-2.84,0.209-5.633,0.209-8.475c0-2.587,0.05-4.516-0.467-5.478
			c-0.565-1.017-1.96-1.37-3.094-1.37c-1.65,0-2.683,0.708-3.199,1.014c0,2.435-0.049,4.873,0,7.306l0.157,7.003h-7.737
			c0.154-3.551,0.26-7.053,0.26-10.555c-0.054-3.095-0.156-4.718-0.929-7.608c0.669-0.408,1.341-0.865,2.062-1.17
			c1.497-0.71,5.056-2.08,9.592-2.08c0.466,0,2.167,0,3.663,0.356c3.867,0.811,5.622,2.789,6.343,4.261
			c0.876,1.674,0.826,3.552,0.826,4.11c0,0.912-0.053,1.828-0.053,2.739c-0.052,1.523-0.102,2.994-0.102,4.467
			c0,1.825,0.102,3.652,0.154,5.479H174.292L174.292,122.853z"/>
		<path fill="#FFFFFF" d="M136.774,92.101c-0.915,0-1.719,0.486-2.167,1.215l-3.83-0.643c-0.037-0.668-0.209-1.298-0.492-1.862
			l2.383-1.948c0.472,0.298,1.037,0.472,1.639,0.472c1.701,0,3.087-1.384,3.087-3.088c0-1.705-1.386-3.087-3.087-3.087
			c-1.706,0-3.088,1.383-3.088,3.087c0,0.352,0.06,0.686,0.168,1l-2.405,1.969c-0.804-0.627-1.81-1.007-2.91-1.007
			c-2.604,0-4.718,2.111-4.718,4.716c0,2.605,2.114,4.718,4.718,4.718c1.976,0,3.666-1.216,4.369-2.939l3.887,0.654
			c0.307,1.065,1.284,1.846,2.449,1.846c1.409,0,2.55-1.144,2.55-2.551C139.326,93.244,138.184,92.101,136.774,92.101z"/>
	</g>
	<g>
		<g>
			<g>
				<path fill="#FFFFFF" d="M42.849,95.04c0.045-1.835,0.09-3.674,0.09-5.555v-5.337c0-0.219-0.044-0.701-0.09-0.919
					c-0.266-0.788-0.977-1.618-2.707-1.618c-1.509,0-2.398,0.523-2.887,0.787v5.994c0,1.226,0.045,2.493,0.089,3.719
					c0.089,0.963,0.132,1.968,0.222,2.93h-7.015c0.177-2.143,0.311-4.286,0.4-6.431c0.044-1.75,0.044-3.5,0.044-5.25V70.102
					c-0.044-1.005-0.044-2.056-0.134-3.106c-0.044-1.005-0.176-1.968-0.266-2.975c1.244-0.219,2.53-0.438,3.773-0.744
					c1.154-0.219,2.309-0.525,3.462-0.832c-0.177,2.057-0.355,4.068-0.443,6.125C37.3,70.453,37.3,72.29,37.3,74.171
					c-0.043,1.05-0.043,2.144-0.043,3.193c0.799-0.262,2.53-0.918,4.838-0.918c2.398,0,3.773,0.7,4.573,1.313
					c0.888,0.657,1.465,1.532,1.643,1.837c1.243,2.145,1.021,5.294,0.932,7.701c0,2.582,0,5.164,0.089,7.744L42.849,95.04
					L42.849,95.04z"/>
				<path fill="#FFFFFF" d="M72.46,78.589c-0.709,1.751-3.685,9.363-7.635,15.401c-0.799,1.269-2.93,4.332-5.905,7.482
					c-0.799,0.83-1.643,1.662-2.53,2.449l-3.817-4.507c0.487-0.349,0.977-0.744,1.42-1.137c1.065-0.918,3.24-2.975,5.239-6.125
					c-3.729-5.426-5.018-7.349-8.036-13.213l6.082-2.669c0.4,1.051,0.844,2.1,1.332,3.107c0.399,0.918,0.888,1.837,1.332,2.755
					c0.844,1.707,1.775,3.414,2.708,5.077c0.754-1.706,1.509-3.457,2.175-5.206c0.667-1.926,1.332-3.851,1.954-5.732L72.46,78.589z"
					/>
				<path fill="#FFFFFF" d="M74.014,99.365c0.133-2.318,0.267-4.593,0.311-6.911c0.044-1.708,0.044-3.414,0.088-5.12v-7.351
					c0-2.187-0.221-2.756-0.71-3.849c1.466-0.833,4.663-2.846,9.324-2.846c0.666,0,2.353,0.044,4.172,0.657
					c3.863,1.313,6.571,4.551,6.571,8.663c0,1.006-0.177,3.369-1.864,5.601c-1.021,1.356-3.553,3.587-8.036,3.587
					c-0.976,0-1.687-0.043-3.463-0.349c0,1.444,0,2.888,0.044,4.331c0.045,1.445,0.135,2.887,0.222,4.332L74.014,99.365z
					 M80.496,85.629c1.021,0.393,1.864,0.743,3.019,0.743c0.223,0,0.711-0.044,1.287-0.176c0.889-0.262,2.753-1.137,2.753-3.631
					c0-2.538-1.954-3.85-4.351-3.85c-1.153,0-1.731,0.218-2.708,0.7V85.629z"/>
				<path fill="#FFFFFF" d="M101.893,88.04c1.468,2.231,3.464,2.583,4.574,2.583c2.219,0,4.085-1.358,4.617-1.664l3.727,3.807
					c-0.577,0.438-1.109,0.787-1.775,1.138c-1.02,0.568-3.638,1.749-6.969,1.749c-0.667,0-2.265-0.044-4.086-0.7
					c-3.817-1.357-6.347-4.594-6.347-8.708c0-0.7,0.044-2.013,0.666-3.631c1.599-4.026,5.195-6.213,9.544-6.213
					c5.416,0,9.635,3.544,9.635,9.014c0,0.875-0.045,1.138-0.268,2.625H101.893z M109.62,83.928c-0.046-0.175-0.137-0.7-0.402-1.226
					c-0.665-1.137-1.952-1.706-3.285-1.706c-0.443,0-2.485,0.175-3.463,1.75c-0.308,0.525-0.354,0.962-0.354,1.181H109.62
					L109.62,83.928z"/>
			</g>
		</g>
		<path fill="#FFFFFF" d="M130.958,101.671c-0.007,0.92-0.012,1.839,0.078,2.697c0.03,0.762,0.11,1.52,0.188,2.274l1.114,10.6
			c0.096,0.907,0.196,1.865,0.342,2.769c0.141,0.852,0.275,1.655,0.46,2.452l-7.87,0.828c-0.023-0.714,0.004-1.432-0.071-2.137
			c-0.029-0.761-0.115-1.57-0.149-2.384l-1.059-10.09c-0.151-0.955-0.258-1.963-0.414-2.969c-0.163-1.054-0.379-2.153-0.541-3.207
			L130.958,101.671z"/>
		<path fill="#FFFFFF" d="M131.175,135.292c-0.618,0-2.114-0.151-3.405-1.421c-0.823-0.862-1.339-2.08-1.339-3.299
			c0-0.289,0.03-0.568,0.081-0.841c-0.282,0.596-0.448,1.262-0.448,1.978c0,1.215,0.518,2.435,1.343,3.297
			c1.289,1.268,2.783,1.421,3.404,1.421c2.346,0,4.317-1.658,4.717-3.852C134.765,134.181,133.095,135.292,131.175,135.292z"/>
		<path fill="#FFFFFF" d="M19.719,94.653c0-2.721,2.205-4.927,4.925-4.927c0.523,0,1.026,0.083,1.499,0.235
			c-0.746-0.486-1.638-0.774-2.601-0.774c-2.629,0-4.744,2.08-4.744,4.667c0,1.218,0.516,2.437,1.34,3.298
			c0.183,0.181,0.386,0.341,0.598,0.49C20.101,96.813,19.719,95.777,19.719,94.653z"/>
		<path fill="#FFFFFF" d="M27.489,94.963l-4.077,2.351c-0.292,0.17-0.532,0.032-0.532-0.306v-4.708c0-0.337,0.239-0.476,0.532-0.306
			l4.077,2.353C27.781,94.518,27.781,94.794,27.489,94.963z"/>
		<g>
			<path fill="#FFFFFF" d="M134.374,125.308c-0.829,0-1.499,0.673-1.499,1.502s0.67,1.499,1.499,1.499
				c0.828,0,1.501-0.67,1.501-1.499S135.202,125.308,134.374,125.308z"/>
			<path fill="#FFFFFF" d="M131.687,129.086c-0.03,0.31-0.286,0.551-0.601,0.551c-0.317,0-0.574-0.243-0.604-0.551
				c-1.349,0.281-2.36,1.475-2.36,2.902h2.789c-0.24-1.01-0.558-2.324,0.175-2.324c0.729,0,0.412,1.314,0.174,2.324h2.787
				C134.047,130.561,133.035,129.367,131.687,129.086z"/>
			<circle fill="#FFFFFF" cx="131.086" cy="127.545" r="1.674"/>
			<g>
				<path fill="#FFFFFF" d="M132.744,128.949c0.572,0.313,1.041,0.782,1.358,1.344c-0.171-0.786-0.266-1.583,0.271-1.583
					c0.654,0,0.373,1.178,0.158,2.085h2.498c0-1.284-0.906-2.352-2.113-2.604c-0.029,0.277-0.26,0.492-0.543,0.492
					c-0.281,0-0.514-0.215-0.541-0.492c-0.283,0.061-0.552,0.166-0.794,0.308C132.958,128.661,132.861,128.813,132.744,128.949z"/>
				<path fill="#FFFFFF" d="M132.352,129.312c-0.092,0.065-0.188,0.125-0.29,0.174c-0.22,0.388-0.345,0.833-0.345,1.31h2.078
					C133.507,130.145,132.993,129.617,132.352,129.312z"/>
			</g>
		</g>
	</g>
</g>
<circle display="none" fill="none" stroke="#2F4858" stroke-miterlimit="10" cx="100" cy="100" r="100"/>
</svg>
